<svg xmlns="http://www.w3.org/2000/svg" xmlns:xlink="http://www.w3.org/1999/xlink" width="1582" height="280" viewBox="0 0 1582 280"><defs><clipPath id="a"><rect width="378" height="20" fill="none"/></clipPath><clipPath id="b"><rect width="710" height="20" fill="none"/></clipPath></defs><g transform="translate(-383 -2075)"><g transform="translate(-317 754)"><g transform="translate(42 -20)"><g transform="translate(680 1387)" fill="#287ab8" stroke="#2c9cf1" stroke-width="5"><circle cx="106" cy="106" r="106" stroke="none"/><circle cx="106" cy="106" r="103.5" fill="none"/></g><path d="M208.214,285.159c8.2,5.919,16.562,15.393,27.164,21.979,9.151,5.683,20.839,8.474,22.476,14.059,7.462,25.455-30.426,46.477-30.426,46.477l-1.878-2.367-2.25-3.139-2.332-3.585-1.238-1.75-.619-1.218-2.105-3.654-1.441-2.865-.21-.36-.578-1.235-2.084-4.666-1.288-3.5-1.622-4.583-1.568-5.558-1.722-8-.861-9.423-.164-4.636.164-4.755.568-6.726.7-4.581Z" transform="translate(480 1188)" fill="#008b52" stroke="#008b52" stroke-width="1"/><path d="M7.8,0c13.59,8.626,20.4,19.392,37.964,28.99C60.93,37.273,80.3,41.34,83.01,49.479,95.373,86.578,34.9,114.894,34.9,114.894l-3.288-2.832-2.423-2.375-3.28-3.5-3.069-3.569-1.871-2.282-1.9-2.649L16.138,93.31l-2.122-3.263-.637-1.061L12,86.585,8.772,80.34,6.641,75.484l-2.5-6.831-1.09-3.924L1.9,60.166.973,55.244.138,49.451.121,43.9,0,41.625.315,30.614,1.734,19.931,4.625,8.316Z" transform="translate(868.4 1562.414) rotate(-161)" fill="#008b52" stroke="#008b52" stroke-width="1"/><g transform="translate(680 1387)" fill="none" stroke="#2c9cf1" stroke-width="5"><circle cx="106" cy="106" r="106" stroke="none"/><circle cx="106" cy="106" r="103.5" fill="none"/></g><rect width="57" height="9" rx="4.5" transform="translate(698 1423)" fill="#fff" opacity="0.5"/><rect width="57" height="9" rx="4.5" transform="translate(716 1469)" fill="#fff" opacity="0.5"/><rect width="37" height="17" rx="8.5" transform="translate(787 1487)" fill="#fff" opacity="0.5"/><rect width="16" height="9" rx="4.5" transform="translate(693 1469)" fill="#fff" opacity="0.5"/><rect width="16" height="9" rx="4.5" transform="translate(780 1577)" fill="#fff" opacity="0.5"/><rect width="58" height="12" rx="6" transform="translate(805 1508)" fill="#fff" opacity="0.5"/><rect width="42" height="24" rx="12" transform="translate(699 1550)" fill="#fff" opacity="0.5"/><rect width="57" height="9" rx="4.5" transform="translate(718 1577)" fill="#fff" opacity="0.5"/><rect width="36" height="9" rx="4.5" transform="translate(737 1411)" fill="#fff" opacity="0.5"/><rect width="16" height="9" rx="4.5" transform="translate(779 1411)" fill="#fff" opacity="0.5"/></g><circle cx="128" cy="128" r="128" transform="translate(700 1345)" fill="none"/><text transform="translate(800 1340)" fill="#fff" font-size="20" font-family="Montserrat-SemiBold, Montserrat" font-weight="600"><tspan x="0" y="0">Earth</tspan></text></g><g transform="translate(719 748)"><g transform="translate(1012 1373)" fill="#9c2e35" stroke="#db3c46" stroke-width="5"><circle cx="106" cy="106" r="106" stroke="none"/><circle cx="106" cy="106" r="103.5" fill="none"/></g><ellipse cx="33" cy="20" rx="33" ry="20" transform="translate(1111 1503)" fill="#98242c"/><ellipse cx="5.5" cy="5" rx="5.5" ry="5" transform="translate(1065 1421)" fill="#98242c"/><ellipse cx="8.5" cy="5" rx="8.5" ry="5" transform="translate(1163 1543)" fill="#98242c"/><ellipse cx="3.5" cy="4" rx="3.5" ry="4" transform="translate(1208 1446)" fill="#98242c"/><g transform="translate(1012 1373)" fill="none" stroke="#db3c46" stroke-width="5"><circle cx="106" cy="106" r="106" stroke="none"/><circle cx="106" cy="106" r="103.5" fill="none"/></g><rect width="57" height="9" rx="4.5" transform="translate(1146 1551)" fill="#fff" opacity="0.5"/><rect width="57" height="9" rx="4.5" transform="translate(1128 1505)" fill="#fff" opacity="0.5"/><rect width="37" height="17" rx="8.5" transform="translate(1071 1479)" fill="#fff" opacity="0.5"/><rect width="16" height="9" rx="4.5" transform="translate(1192 1505)" fill="#fff" opacity="0.5"/><rect width="16" height="9" rx="4.5" transform="translate(1050 1388)" fill="#fff" opacity="0.5"/><rect width="58" height="12" rx="6" transform="translate(1026 1463)" fill="#fff" opacity="0.5"/><rect width="42" height="24" rx="12" transform="translate(1182 1438)" fill="#fff" opacity="0.5"/><rect width="57" height="9" rx="4.5" transform="translate(1071 1388)" fill="#fff" opacity="0.5"/><rect width="36" height="9" rx="4.5" transform="translate(1069 1563)" fill="#fff" opacity="0.5"/><rect width="16" height="9" rx="4.5" transform="translate(1047 1563)" fill="#fff" opacity="0.5"/><circle cx="128" cy="128" r="128" transform="translate(990 1351)" fill="none"/><text transform="translate(1093 1346)" fill="#fff" font-size="20" font-family="Montserrat-SemiBold, Montserrat" font-weight="600"><tspan x="0" y="0">Mars</tspan></text></g><g transform="translate(214 1922)"><g transform="translate(425 295)" clip-path="url(#a)"><g transform="translate(-426 -295)"><rect width="50" height="20" rx="10" transform="translate(426 295)" fill="#fff"/><rect width="50" height="20" rx="10" transform="translate(486 295)" fill="#fff"/><rect width="50" height="20" rx="10" transform="translate(546 295)" fill="#fff"/></g><g transform="translate(-246 -295)"><rect width="50" height="20" rx="10" transform="translate(426 295)" fill="#fff"/><rect width="50" height="20" rx="10" transform="translate(486 295)" fill="#fff"/><rect width="50" height="20" rx="10" transform="translate(546 295)" fill="#fff"/></g><g transform="translate(-66 -295)"><rect width="50" height="20" rx="10" transform="translate(426 295)" fill="#fff"/><rect width="50" height="20" rx="10" transform="translate(486 295)" fill="#fff"/><rect width="50" height="20" rx="10" transform="translate(546 295)" fill="#fff"/></g></g><g transform="translate(785 295)" clip-path="url(#b)"><g transform="translate(-426 -295)"><g transform="translate(426 295)" fill="none" stroke="#fff" stroke-width="1"><rect width="50" height="20" rx="10" stroke="none"/><rect x="0.5" y="0.5" width="49" height="19" rx="9.5" fill="none"/></g><g transform="translate(486 295)" fill="none" stroke="#fff" stroke-width="1"><rect width="50" height="20" rx="10" stroke="none"/><rect x="0.5" y="0.5" width="49" height="19" rx="9.5" fill="none"/></g><g transform="translate(546 295)" fill="none" stroke="#fff" stroke-width="1"><rect width="50" height="20" rx="10" stroke="none"/><rect x="0.5" y="0.5" width="49" height="19" rx="9.5" fill="none"/></g></g><g transform="translate(-246 -295)"><g transform="translate(426 295)" fill="none" stroke="#fff" stroke-width="1"><rect width="50" height="20" rx="10" stroke="none"/><rect x="0.5" y="0.5" width="49" height="19" rx="9.5" fill="none"/></g><g transform="translate(486 295)" fill="none" stroke="#fff" stroke-width="1"><rect width="50" height="20" rx="10" stroke="none"/><rect x="0.5" y="0.5" width="49" height="19" rx="9.5" fill="none"/></g><g transform="translate(546 295)" fill="none" stroke="#fff" stroke-width="1"><rect width="50" height="20" rx="10" stroke="none"/><rect x="0.5" y="0.5" width="49" height="19" rx="9.5" fill="none"/></g></g><g transform="translate(-66 -295)"><g transform="translate(426 295)" fill="none" stroke="#fff" stroke-width="1"><rect width="50" height="20" rx="10" stroke="none"/><rect x="0.5" y="0.5" width="49" height="19" rx="9.5" fill="none"/></g><g transform="translate(486 295)" fill="none" stroke="#fff" stroke-width="1"><rect width="50" height="20" rx="10" stroke="none"/><rect x="0.5" y="0.5" width="49" height="19" rx="9.5" fill="none"/></g><g transform="translate(546 295)" fill="none" stroke="#fff" stroke-width="1"><rect width="50" height="20" rx="10" stroke="none"/><rect x="0.5" y="0.5" width="49" height="19" rx="9.5" fill="none"/></g></g><g transform="translate(114 -295)"><g transform="translate(426 295)" fill="none" stroke="#fff" stroke-width="1"><rect width="50" height="20" rx="10" stroke="none"/><rect x="0.5" y="0.5" width="49" height="19" rx="9.5" fill="none"/></g><g transform="translate(486 295)" fill="none" stroke="#fff" stroke-width="1"><rect width="50" height="20" rx="10" stroke="none"/><rect x="0.5" y="0.5" width="49" height="19" rx="9.5" fill="none"/></g><g transform="translate(546 295)" fill="none" stroke="#fff" stroke-width="1"><rect width="50" height="20" rx="10" stroke="none"/><rect x="0.5" y="0.5" width="49" height="19" rx="9.5" fill="none"/></g></g></g></g><g transform="translate(89 1922)"><circle cx="17.5" cy="17.5" r="17.5" transform="translate(912 288)" fill="none"/><rect width="11" height="35" rx="5.5" transform="translate(924 288)" fill="#fff"/><text transform="translate(763 250)" fill="#fff" font-size="20" font-family="Montserrat-SemiBold, Montserrat" font-weight="600"><tspan x="0" y="0">Interplanetary Transport System</tspan></text><path d="M23.736,8.59l-7.687,7.67L8.361,8.59,6,10.951,16.049,21,26.1,10.951Z" transform="translate(913.451 256.41)" fill="#fff"/></g></g></svg>