<svg xmlns="http://www.w3.org/2000/svg" xmlns:xlink="http://www.w3.org/1999/xlink" width="1582" height="280" viewBox="0 0 1582 280"><defs><clipPath id="a"><rect width="378" height="20" fill="none"/></clipPath><clipPath id="b"><rect width="710" height="20" fill="none"/></clipPath></defs><g transform="translate(-383 -2075)"><g transform="translate(-317 754)"><g transform="translate(42 -20)"><circle cx="106" cy="106" r="106" transform="translate(680 1387)" fill="#287ab8"/><path d="M106,5A101.772,101.772,0,0,0,85.64,7.052,100.419,100.419,0,0,0,49.533,22.246a101.309,101.309,0,0,0-36.6,44.442A100.455,100.455,0,0,0,7.052,85.64a102.034,102.034,0,0,0,0,40.721,100.419,100.419,0,0,0,15.194,36.106,101.309,101.309,0,0,0,44.442,36.6,100.455,100.455,0,0,0,18.952,5.883,102.034,102.034,0,0,0,40.721,0,100.419,100.419,0,0,0,36.106-15.194,101.309,101.309,0,0,0,36.6-44.442,100.456,100.456,0,0,0,5.883-18.952,102.034,102.034,0,0,0,0-40.721,100.419,100.419,0,0,0-15.194-36.106,101.309,101.309,0,0,0-44.442-36.6A100.456,100.456,0,0,0,126.36,7.052,101.772,101.772,0,0,0,106,5m0-5A106,106,0,1,1,0,106,106,106,0,0,1,106,0Z" transform="translate(680 1387)" fill="#2c9cf1"/><path d="M208.214,285.159c8.2,5.919,16.562,15.393,27.164,21.979,9.151,5.683,20.839,8.474,22.476,14.059,7.462,25.455-30.426,46.477-30.426,46.477l-1.878-2.367-2.25-3.139-2.332-3.585-1.238-1.75-.619-1.218-2.105-3.654-1.441-2.865-.21-.36-.578-1.235-2.084-4.666-1.288-3.5-1.622-4.583-1.568-5.558-1.722-8-.861-9.423-.164-4.636.164-4.755.568-6.726.7-4.581Z" transform="translate(480 1188)" fill="#008b52"/><path d="M207.891,284.309l.616.444a134.46,134.46,0,0,1,10.382,8.688c5.185,4.629,10.547,9.416,16.753,13.271a93.457,93.457,0,0,0,10.034,5.159c6.19,2.872,11.535,5.353,12.658,9.183A25.911,25.911,0,0,1,256.7,339.4a51.007,51.007,0,0,1-10.913,14.933A92.866,92.866,0,0,1,233.515,364.4c-3.416,2.355-5.821,3.695-5.845,3.708l-.371.206-2.156-2.719-2.262-3.158-2.327-3.577L219.3,357.09l-.63-1.239-2.112-3.668-1.434-2.851-.223-.387-.581-1.243-2.1-4.7-1.29-3.5-1.632-4.614-1.576-5.589L206,321.272l-.866-9.48-.165-4.653.166-4.8.572-6.759.7-4.614Zm19.661,82.716A94.348,94.348,0,0,0,245.1,353.61c7.687-7.6,16.055-19.367,12.272-32.273-1-3.4-6.15-5.787-12.119-8.557a94.213,94.213,0,0,1-10.141-5.217c-6.28-3.9-11.674-8.717-16.891-13.375-3.356-3-6.537-5.836-9.686-8.173l-1.147,5.154-.692,4.547-.566,6.7-.163,4.725.163,4.6.857,9.378,1.712,7.952,1.56,5.528,1.616,4.565,1.28,3.478,2.076,4.647.566,1.211.213.368,1.435,2.852,2.11,3.665.6,1.186,1.228,1.736,2.326,3.576,2.236,3.12Z" transform="translate(480 1188)" fill="#008b52"/><path d="M7.8,0c13.59,8.626,20.4,19.392,37.964,28.99C60.93,37.273,80.3,41.34,83.01,49.479,95.373,86.578,34.9,114.894,34.9,114.894l-3.288-2.832-2.423-2.375-3.28-3.5-3.069-3.569-1.871-2.282-1.9-2.649L16.138,93.31l-2.122-3.263-.637-1.061L12,86.585,8.772,80.34,6.641,75.484l-2.5-6.831-1.09-3.924L1.9,60.166.973,55.244.138,49.451.121,43.9,0,41.625.315,30.614,1.734,19.931,4.625,8.316Z" transform="translate(868.4 1562.414) rotate(-161)" fill="#008b52"/><path d="M7.555-.75l.517.328A113.572,113.572,0,0,1,23.363,11.736c6.251,5.6,12.715,11.391,22.644,16.816a163.975,163.975,0,0,0,16.664,7.538c10.188,4.158,18.986,7.749,20.813,13.233A32.025,32.025,0,0,1,84.989,63a37.23,37.23,0,0,1-3.833,12.579C77.649,82.6,71.85,89.631,63.92,96.477A138,138,0,0,1,44.413,110.32c-5.434,3.209-9.259,5.008-9.3,5.026l-.293.137-3.557-3.066-2.437-2.39-3.295-3.512-3.077-3.578-1.891-2.307-1.913-2.662-2.935-4.387L13.587,90.3l-.641-1.069-1.392-2.421L8.314,80.54,6.172,75.656l-2.516-6.87L2.562,64.85,1.409,60.259.478,55.316l-.841-5.828L-.379,43.91-.5,41.631v-.02l.316-11.037,0-.026L1.242,19.837,4.147,8.165ZM34.983,114.3c.986-.478,4.395-2.167,8.94-4.853A136.942,136.942,0,0,0,63.281,95.707C75.541,85.12,88.833,68.534,82.535,49.638c-1.682-5.047-10.283-8.558-20.242-12.623a164.729,164.729,0,0,1-16.765-7.586C35.5,23.948,28.989,18.118,22.7,12.48A115.522,115.522,0,0,0,8.051.753L5.1,8.466,2.226,20.024.814,30.654.5,41.619l.121,2.276.016,5.519.829,5.748.923,4.9L3.53,64.6l1.083,3.9,2.492,6.8,2.118,4.827,3.213,6.221,1.373,2.386.63,1.049,2.116,3.254,2.924,4.371,1.889,2.629,1.858,2.265,3.058,3.555,3.266,3.481,2.4,2.357Z" transform="translate(868.4 1562.414) rotate(-161)" fill="#008b52"/><path d="M106,5A101.772,101.772,0,0,0,85.64,7.052,100.419,100.419,0,0,0,49.533,22.246a101.309,101.309,0,0,0-36.6,44.442A100.455,100.455,0,0,0,7.052,85.64a102.034,102.034,0,0,0,0,40.721,100.419,100.419,0,0,0,15.194,36.106,101.309,101.309,0,0,0,44.442,36.6,100.455,100.455,0,0,0,18.952,5.883,102.034,102.034,0,0,0,40.721,0,100.419,100.419,0,0,0,36.106-15.194,101.309,101.309,0,0,0,36.6-44.442,100.456,100.456,0,0,0,5.883-18.952,102.034,102.034,0,0,0,0-40.721,100.419,100.419,0,0,0-15.194-36.106,101.309,101.309,0,0,0-44.442-36.6A100.456,100.456,0,0,0,126.36,7.052,101.772,101.772,0,0,0,106,5m0-5A106,106,0,1,1,0,106,106,106,0,0,1,106,0Z" transform="translate(680 1387)" fill="#2c9cf1"/><rect width="57" height="9" rx="4.5" transform="translate(698 1423)" fill="#fff" opacity="0.5"/><rect width="57" height="9" rx="4.5" transform="translate(716 1469)" fill="#fff" opacity="0.5"/><rect width="37" height="17" rx="8.5" transform="translate(787 1487)" fill="#fff" opacity="0.5"/><rect width="16" height="9" rx="4.5" transform="translate(693 1469)" fill="#fff" opacity="0.5"/><rect width="16" height="9" rx="4.5" transform="translate(780 1577)" fill="#fff" opacity="0.5"/><rect width="58" height="12" rx="6" transform="translate(805 1508)" fill="#fff" opacity="0.5"/><rect width="42" height="24" rx="12" transform="translate(699 1550)" fill="#fff" opacity="0.5"/><rect width="57" height="9" rx="4.5" transform="translate(718 1577)" fill="#fff" opacity="0.5"/><rect width="36" height="9" rx="4.5" transform="translate(737 1411)" fill="#fff" opacity="0.5"/><rect width="16" height="9" rx="4.5" transform="translate(779 1411)" fill="#fff" opacity="0.5"/></g><circle cx="128" cy="128" r="128" transform="translate(700 1345)" fill="none"/><text transform="translate(800 1340)" fill="#fff" font-size="20" font-family="Montserrat-SemiBold, Montserrat" font-weight="600"><tspan x="0" y="0">Earth</tspan></text></g><g transform="translate(719 748)"><circle cx="106" cy="106" r="106" transform="translate(1012 1373)" fill="#9c2e35"/><path d="M106,5A101.772,101.772,0,0,0,85.64,7.052,100.419,100.419,0,0,0,49.533,22.246a101.309,101.309,0,0,0-36.6,44.442A100.455,100.455,0,0,0,7.052,85.64a102.034,102.034,0,0,0,0,40.721,100.419,100.419,0,0,0,15.194,36.106,101.309,101.309,0,0,0,44.442,36.6,100.455,100.455,0,0,0,18.952,5.883,102.034,102.034,0,0,0,40.721,0,100.419,100.419,0,0,0,36.106-15.194,101.309,101.309,0,0,0,36.6-44.442,100.456,100.456,0,0,0,5.883-18.952,102.034,102.034,0,0,0,0-40.721,100.419,100.419,0,0,0-15.194-36.106,101.309,101.309,0,0,0-44.442-36.6A100.456,100.456,0,0,0,126.36,7.052,101.772,101.772,0,0,0,106,5m0-5A106,106,0,1,1,0,106,106,106,0,0,1,106,0Z" transform="translate(1012 1373)" fill="#db3c46"/><ellipse cx="33" cy="20" rx="33" ry="20" transform="translate(1111 1503)" fill="#98242c"/><ellipse cx="5.5" cy="5" rx="5.5" ry="5" transform="translate(1065 1421)" fill="#98242c"/><ellipse cx="8.5" cy="5" rx="8.5" ry="5" transform="translate(1163 1543)" fill="#98242c"/><ellipse cx="3.5" cy="4" rx="3.5" ry="4" transform="translate(1208 1446)" fill="#98242c"/><path d="M106,5A101.772,101.772,0,0,0,85.64,7.052,100.419,100.419,0,0,0,49.533,22.246a101.309,101.309,0,0,0-36.6,44.442A100.455,100.455,0,0,0,7.052,85.64a102.034,102.034,0,0,0,0,40.721,100.419,100.419,0,0,0,15.194,36.106,101.309,101.309,0,0,0,44.442,36.6,100.455,100.455,0,0,0,18.952,5.883,102.034,102.034,0,0,0,40.721,0,100.419,100.419,0,0,0,36.106-15.194,101.309,101.309,0,0,0,36.6-44.442,100.456,100.456,0,0,0,5.883-18.952,102.034,102.034,0,0,0,0-40.721,100.419,100.419,0,0,0-15.194-36.106,101.309,101.309,0,0,0-44.442-36.6A100.456,100.456,0,0,0,126.36,7.052,101.772,101.772,0,0,0,106,5m0-5A106,106,0,1,1,0,106,106,106,0,0,1,106,0Z" transform="translate(1012 1373)" fill="#db3c46"/><rect width="57" height="9" rx="4.5" transform="translate(1146 1551)" fill="#fff" opacity="0.5"/><rect width="57" height="9" rx="4.5" transform="translate(1128 1505)" fill="#fff" opacity="0.5"/><rect width="37" height="17" rx="8.5" transform="translate(1071 1479)" fill="#fff" opacity="0.5"/><rect width="16" height="9" rx="4.5" transform="translate(1192 1505)" fill="#fff" opacity="0.5"/><rect width="16" height="9" rx="4.5" transform="translate(1050 1388)" fill="#fff" opacity="0.5"/><rect width="58" height="12" rx="6" transform="translate(1026 1463)" fill="#fff" opacity="0.5"/><rect width="42" height="24" rx="12" transform="translate(1182 1438)" fill="#fff" opacity="0.5"/><rect width="57" height="9" rx="4.5" transform="translate(1071 1388)" fill="#fff" opacity="0.5"/><rect width="36" height="9" rx="4.5" transform="translate(1069 1563)" fill="#fff" opacity="0.5"/><rect width="16" height="9" rx="4.5" transform="translate(1047 1563)" fill="#fff" opacity="0.5"/><circle cx="128" cy="128" r="128" transform="translate(990 1351)" fill="none"/><text transform="translate(1093 1346)" fill="#fff" font-size="20" font-family="Montserrat-SemiBold, Montserrat" font-weight="600"><tspan x="0" y="0">Mars</tspan></text></g><g transform="translate(214 1922)"><g transform="translate(425 295)" clip-path="url(#a)"><g transform="translate(-426 -295)"><rect width="50" height="20" rx="10" transform="translate(426 295)" fill="#fff"/><rect width="50" height="20" rx="10" transform="translate(486 295)" fill="#fff"/><rect width="50" height="20" rx="10" transform="translate(546 295)" fill="#fff"/></g><g transform="translate(-246 -295)"><rect width="50" height="20" rx="10" transform="translate(426 295)" fill="#fff"/><rect width="50" height="20" rx="10" transform="translate(486 295)" fill="#fff"/><rect width="50" height="20" rx="10" transform="translate(546 295)" fill="#fff"/></g><g transform="translate(-66 -295)"><rect width="50" height="20" rx="10" transform="translate(426 295)" fill="#fff"/><rect width="50" height="20" rx="10" transform="translate(486 295)" fill="#fff"/><rect width="50" height="20" rx="10" transform="translate(546 295)" fill="#fff"/></g></g><g transform="translate(785 295)" clip-path="url(#b)"><g transform="translate(-426 -295)"><g transform="translate(426 295)" fill="none" stroke="#fff" stroke-width="1"><rect width="50" height="20" rx="10" stroke="none"/><rect x="0.5" y="0.5" width="49" height="19" rx="9.5" fill="none"/></g><g transform="translate(486 295)" fill="none" stroke="#fff" stroke-width="1"><rect width="50" height="20" rx="10" stroke="none"/><rect x="0.5" y="0.5" width="49" height="19" rx="9.5" fill="none"/></g><g transform="translate(546 295)" fill="none" stroke="#fff" stroke-width="1"><rect width="50" height="20" rx="10" stroke="none"/><rect x="0.5" y="0.5" width="49" height="19" rx="9.5" fill="none"/></g></g><g transform="translate(-246 -295)"><g transform="translate(426 295)" fill="none" stroke="#fff" stroke-width="1"><rect width="50" height="20" rx="10" stroke="none"/><rect x="0.5" y="0.5" width="49" height="19" rx="9.5" fill="none"/></g><g transform="translate(486 295)" fill="none" stroke="#fff" stroke-width="1"><rect width="50" height="20" rx="10" stroke="none"/><rect x="0.5" y="0.5" width="49" height="19" rx="9.5" fill="none"/></g><g transform="translate(546 295)" fill="none" stroke="#fff" stroke-width="1"><rect width="50" height="20" rx="10" stroke="none"/><rect x="0.5" y="0.5" width="49" height="19" rx="9.5" fill="none"/></g></g><g transform="translate(-66 -295)"><g transform="translate(426 295)" fill="none" stroke="#fff" stroke-width="1"><rect width="50" height="20" rx="10" stroke="none"/><rect x="0.5" y="0.5" width="49" height="19" rx="9.5" fill="none"/></g><g transform="translate(486 295)" fill="none" stroke="#fff" stroke-width="1"><rect width="50" height="20" rx="10" stroke="none"/><rect x="0.5" y="0.5" width="49" height="19" rx="9.5" fill="none"/></g><g transform="translate(546 295)" fill="none" stroke="#fff" stroke-width="1"><rect width="50" height="20" rx="10" stroke="none"/><rect x="0.5" y="0.5" width="49" height="19" rx="9.5" fill="none"/></g></g><g transform="translate(114 -295)"><g transform="translate(426 295)" fill="none" stroke="#fff" stroke-width="1"><rect width="50" height="20" rx="10" stroke="none"/><rect x="0.5" y="0.5" width="49" height="19" rx="9.5" fill="none"/></g><g transform="translate(486 295)" fill="none" stroke="#fff" stroke-width="1"><rect width="50" height="20" rx="10" stroke="none"/><rect x="0.5" y="0.5" width="49" height="19" rx="9.5" fill="none"/></g><g transform="translate(546 295)" fill="none" stroke="#fff" stroke-width="1"><rect width="50" height="20" rx="10" stroke="none"/><rect x="0.5" y="0.5" width="49" height="19" rx="9.5" fill="none"/></g></g></g></g><g transform="translate(89 1922)"><circle cx="17.5" cy="17.5" r="17.5" transform="translate(912 288)" fill="none"/><rect width="11" height="35" rx="5.5" transform="translate(924 288)" fill="#fff"/><text transform="translate(763 250)" fill="#fff" font-size="20" font-family="Montserrat-SemiBold, Montserrat" font-weight="600"><tspan x="0" y="0">Interplanetary Transport System</tspan></text><path d="M23.736,8.59l-7.687,7.67L8.361,8.59,6,10.951,16.049,21,26.1,10.951Z" transform="translate(913.451 256.41)" fill="#fff"/></g></g></svg>