<svg xmlns="http://www.w3.org/2000/svg" xmlns:xlink="http://www.w3.org/1999/xlink" width="458" height="300" viewBox="0 0 458 300"><defs><style>.a,.g{fill:#fff;}.b{clip-path:url(#a);}.c{fill:#15683c;}.d{fill:#069448;}.e{fill:#14845e;}.f{fill:#13b17b;}.g,.h,.i,.j,.k{font-size:20px;font-family:Montserrat-Regular, Montserrat;}.h{fill:#06c962;}.i{fill:#39f390;}.j{fill:#00d18a;}.k{fill:#00ffa8;}</style><clipPath id="a"><circle class="a" cx="150" cy="150" r="150" transform="translate(726 642)"/></clipPath></defs><g transform="translate(-726 -677)"><g transform="translate(0 35)"><g class="b"><path class="c" d="M876,558.29V792l236.505-50.33Z"/></g><g class="b"><path class="d" d="M996.851,986.782C996.851,1045.209,876,792,876,792l236.505-50.33Z"/></g><g class="b"><path class="e" d="M996.851,986.782C996.851,1045.209,876,792,876,792L709.128,904.384l131.684,45.408"/></g><g class="b"><path class="f" d="M876,593.336V792L709.128,904.384l28-311.047"/></g></g><g transform="translate(-8 38)"><circle class="c" cx="9" cy="9" r="9" transform="translate(1064 642)"/><circle class="d" cx="9" cy="9" r="9" transform="translate(1064 675)"/><circle class="e" cx="9" cy="9" r="9" transform="translate(1064 708)"/><circle class="f" cx="9" cy="9" r="9" transform="translate(1064 741)"/><text class="g" transform="translate(1092 658)"><tspan x="0" y="0">Fruits</tspan></text><text class="g" transform="translate(1092 691)"><tspan x="0" y="0">Meats</tspan></text><text class="g" transform="translate(1092 724)"><tspan x="0" y="0">Grains</tspan></text><text class="g" transform="translate(1092 757)"><tspan x="0" y="0">Vegtables</tspan></text></g><text class="g" transform="translate(1066 834)"><tspan x="0" y="0">Kilograms </tspan><tspan x="0" y="24">in Millions</tspan></text><text class="h" transform="translate(894 766)"><tspan x="0" y="0">5.6M KG</tspan></text><text class="i" transform="translate(919 864)"><tspan x="0" y="0">5.4M KG</tspan></text><text class="j" transform="translate(812 918)"><tspan x="0" y="0">5.8M KG</tspan></text><text class="k" transform="translate(762 800)"><tspan x="0" y="0">9.7M KG</tspan></text></g></svg>