<svg xmlns="http://www.w3.org/2000/svg" xmlns:xlink="http://www.w3.org/1999/xlink" width="458" height="300" viewBox="0 0 458 300"><defs><clipPath id="a"><circle cx="150" cy="150" r="150" transform="translate(726 642)" fill="#fff"/></clipPath></defs><g transform="translate(-726 -677)"><g transform="translate(0 35)"><g clip-path="url(#a)"><path d="M876,558.29V792l236.505-50.33Z" fill="#15683c"/></g><g clip-path="url(#a)"><path d="M996.851,986.782C996.851,1045.209,876,792,876,792l236.505-50.33Z" fill="#069448"/></g><g clip-path="url(#a)"><path d="M996.851,986.782C996.851,1045.209,876,792,876,792L709.128,904.384l131.684,45.408" fill="#14845e"/></g><g clip-path="url(#a)"><path d="M876,593.336V792L709.128,904.384l28-311.047" fill="#13b17b"/></g></g><g transform="translate(-8 38)"><circle cx="9" cy="9" r="9" transform="translate(1064 642)" fill="#15683c"/><circle cx="9" cy="9" r="9" transform="translate(1064 675)" fill="#069448"/><circle cx="9" cy="9" r="9" transform="translate(1064 708)" fill="#14845e"/><circle cx="9" cy="9" r="9" transform="translate(1064 741)" fill="#13b17b"/><text transform="translate(1092 658)" fill="#fff" font-size="20" font-family="Montserrat-Regular, Montserrat"><tspan x="0" y="0">Fruits</tspan></text><text transform="translate(1092 691)" fill="#fff" font-size="20" font-family="Montserrat-Regular, Montserrat"><tspan x="0" y="0">Meats</tspan></text><text transform="translate(1092 724)" fill="#fff" font-size="20" font-family="Montserrat-Regular, Montserrat"><tspan x="0" y="0">Grains</tspan></text><text transform="translate(1092 757)" fill="#fff" font-size="20" font-family="Montserrat-Regular, Montserrat"><tspan x="0" y="0">Vegtables</tspan></text></g><text transform="translate(1066 834)" fill="#fff" font-size="20" font-family="Montserrat-Regular, Montserrat"><tspan x="0" y="0">Kilograms </tspan><tspan x="0" y="24">in Millions</tspan></text><text transform="translate(894 766)" fill="#06c962" font-size="20" font-family="Montserrat-Regular, Montserrat"><tspan x="0" y="0">5.6M KG</tspan></text><text transform="translate(919 864)" fill="#39f390" font-size="20" font-family="Montserrat-Regular, Montserrat"><tspan x="0" y="0">5.4M KG</tspan></text><text transform="translate(812 918)" fill="#00d18a" font-size="20" font-family="Montserrat-Regular, Montserrat"><tspan x="0" y="0">5.8M KG</tspan></text><text transform="translate(762 800)" fill="#00ffa8" font-size="20" font-family="Montserrat-Regular, Montserrat"><tspan x="0" y="0">9.7M KG</tspan></text></g></svg>