<svg xmlns="http://www.w3.org/2000/svg" width="256" height="256" viewBox="0 0 256 256"><g transform="translate(-990 -1351)"><g transform="translate(1012 1373)" fill="#9c2e35" stroke="#db3c46" stroke-width="5"><circle cx="106" cy="106" r="106" stroke="none"/><circle cx="106" cy="106" r="103.5" fill="none"/></g><ellipse cx="33" cy="20" rx="33" ry="20" transform="translate(1111 1503)" fill="#98242c"/><ellipse cx="5.5" cy="5" rx="5.5" ry="5" transform="translate(1065 1421)" fill="#98242c"/><ellipse cx="8.5" cy="5" rx="8.5" ry="5" transform="translate(1163 1543)" fill="#98242c"/><ellipse cx="3.5" cy="4" rx="3.5" ry="4" transform="translate(1208 1446)" fill="#98242c"/><g transform="translate(1012 1373)" fill="none" stroke="#db3c46" stroke-width="5"><circle cx="106" cy="106" r="106" stroke="none"/><circle cx="106" cy="106" r="103.5" fill="none"/></g><rect width="57" height="9" rx="4.5" transform="translate(1146 1551)" fill="#fff" opacity="0.5"/><rect width="57" height="9" rx="4.5" transform="translate(1128 1505)" fill="#fff" opacity="0.5"/><rect width="37" height="17" rx="8.5" transform="translate(1071 1479)" fill="#fff" opacity="0.5"/><rect width="16" height="9" rx="4.5" transform="translate(1192 1505)" fill="#fff" opacity="0.5"/><rect width="16" height="9" rx="4.5" transform="translate(1050 1388)" fill="#fff" opacity="0.5"/><rect width="58" height="12" rx="6" transform="translate(1026 1463)" fill="#fff" opacity="0.5"/><rect width="42" height="24" rx="12" transform="translate(1182 1438)" fill="#fff" opacity="0.5"/><rect width="57" height="9" rx="4.5" transform="translate(1071 1388)" fill="#fff" opacity="0.5"/><rect width="36" height="9" rx="4.5" transform="translate(1069 1563)" fill="#fff" opacity="0.5"/><rect width="16" height="9" rx="4.5" transform="translate(1047 1563)" fill="#fff" opacity="0.5"/><circle cx="128" cy="128" r="128" transform="translate(990 1351)" fill="none"/></g></svg>