<svg xmlns="http://www.w3.org/2000/svg" width="464.148" height="295.5" viewBox="0 0 464.148 295.5"><g transform="translate(-489 -1406)"><text transform="translate(682 1464)" fill="#fff" font-size="25" font-family="Montserrat-SemiBold, Montserrat" font-weight="600"><tspan x="0" y="0">30658</tspan></text><text transform="translate(659 1490)" fill="#fff" font-size="15" font-family="Montserrat-Regular, Montserrat"><tspan x="0" y="0">Kilometers/Hour</tspan></text><text transform="translate(618 1425)" fill="#fff" font-size="20" font-family="Montserrat-SemiBold, Montserrat" font-weight="600"><tspan x="0" y="0">Speed of Spacecraft</tspan></text><g transform="translate(341.074 719.5)"><text transform="translate(215 951)" fill="#fff" font-size="20" font-family="Montserrat-Regular, Montserrat"><tspan x="-44.71" y="0">Engine 1 </tspan><tspan x="-65.19" y="24">Temperature</tspan></text><text transform="translate(380 951)" fill="#fff" font-size="20" font-family="Montserrat-Regular, Montserrat"><tspan x="-46.78" y="0">Engine 2 </tspan><tspan x="-65.19" y="24">Temperature</tspan></text><text transform="translate(545 951)" fill="#fff" font-size="20" font-family="Montserrat-Regular, Montserrat"><tspan x="-46.74" y="0">Engine 3 </tspan><tspan x="-65.19" y="24">Temperature</tspan></text><path d="M0,152.5A1.5,1.5,0,0,1-1.5,151V0A1.5,1.5,0,0,1,0-1.5,1.5,1.5,0,0,1,1.5,0V151A1.5,1.5,0,0,1,0,152.5Z" transform="translate(297.5 829.5)" fill="#fff"/><path d="M0,152.5A1.5,1.5,0,0,1-1.5,151V0A1.5,1.5,0,0,1,0-1.5,1.5,1.5,0,0,1,1.5,0V151A1.5,1.5,0,0,1,0,152.5Z" transform="translate(462.5 829.5)" fill="#fff"/><g transform="translate(-2.074 86.5)"><path d="M14.319,17.971V9.913a1.188,1.188,0,0,0-2.377,0v8.058a2.377,2.377,0,1,0,2.377,0Zm4.16-2.71V6.348a5.348,5.348,0,1,0-10.7,0v8.913A7.131,7.131,0,0,0,11.6,26.943a8.319,8.319,0,0,0,1.533.2,7.131,7.131,0,0,0,5.348-11.884Zm-2.377,8.4a4.765,4.765,0,1,1-6.322-7.131,1.188,1.188,0,0,0,.357-.844V6.348a2.971,2.971,0,1,1,5.942,0v9.436a1.188,1.188,0,0,0,.357.844,4.754,4.754,0,0,1-.333,7.131Z" transform="translate(263.853 782.927)" fill="#fff"/><text transform="translate(150 807.5)" fill="#fff" font-size="30" font-family="Montserrat-Regular, Montserrat"><tspan x="0" y="0">3,251 °C</tspan></text></g><g transform="translate(162.926 86.5)"><path d="M14.319,17.971V9.913a1.188,1.188,0,0,0-2.377,0v8.058a2.377,2.377,0,1,0,2.377,0Zm4.16-2.71V6.348a5.348,5.348,0,1,0-10.7,0v8.913A7.131,7.131,0,0,0,11.6,26.943a8.319,8.319,0,0,0,1.533.2,7.131,7.131,0,0,0,5.348-11.884Zm-2.377,8.4a4.765,4.765,0,1,1-6.322-7.131,1.188,1.188,0,0,0,.357-.844V6.348a2.971,2.971,0,1,1,5.942,0v9.436a1.188,1.188,0,0,0,.357.844,4.754,4.754,0,0,1-.333,7.131Z" transform="translate(263.853 782.927)" fill="#fff"/><text transform="translate(150 807.5)" fill="#fff" font-size="30" font-family="Montserrat-Regular, Montserrat"><tspan x="0" y="0">3,251 °C</tspan></text></g><g transform="translate(327.926 86.5)"><path d="M14.319,17.971V9.913a1.188,1.188,0,0,0-2.377,0v8.058a2.377,2.377,0,1,0,2.377,0Zm4.16-2.71V6.348a5.348,5.348,0,1,0-10.7,0v8.913A7.131,7.131,0,0,0,11.6,26.943a8.319,8.319,0,0,0,1.533.2,7.131,7.131,0,0,0,5.348-11.884Zm-2.377,8.4a4.765,4.765,0,1,1-6.322-7.131,1.188,1.188,0,0,0,.357-.844V6.348a2.971,2.971,0,1,1,5.942,0v9.436a1.188,1.188,0,0,0,.357.844,4.754,4.754,0,0,1-.333,7.131Z" transform="translate(263.853 782.927)" fill="#fff"/><text transform="translate(150 807.5)" fill="#fff" font-size="30" font-family="Montserrat-Regular, Montserrat"><tspan x="0" y="0">3,251 °C</tspan></text></g></g></g></svg>