<svg xmlns="http://www.w3.org/2000/svg" width="457.541" height="339" viewBox="0 0 457.541 339"><g transform="translate(-707 -642)"><path d="M0,0H202.536A18.855,18.855,0,0,1,221.39,18.855v0A18.855,18.855,0,0,1,202.536,37.71H0a0,0,0,0,1,0,0V0A0,0,0,0,1,0,0Z" transform="translate(789.645 952) rotate(-90)"/><path d="M0,0H219.145A18.855,18.855,0,0,1,238,18.855v0A18.855,18.855,0,0,1,219.145,37.71H0a0,0,0,0,1,0,0V0A0,0,0,0,1,0,0Z" transform="translate(941.145 952) rotate(-90)" fill="#0e55cf"/><path d="M0,0H246.2a18.855,18.855,0,0,1,18.855,18.855v0A18.855,18.855,0,0,1,246.2,37.71H0a0,0,0,0,1,0,0V0A0,0,0,0,1,0,0Z" transform="translate(1092.645 952) rotate(-90)" fill="#15e7f6"/><line y2="277" transform="translate(756.959 674.5)" fill="none" stroke="#fff" stroke-linecap="round" stroke-width="3"/><line x1="406.081" transform="translate(756.959 951.5)" fill="none" stroke="#fff" stroke-linecap="round" stroke-width="3"/><text transform="translate(787 976)" fill="#fff" font-size="20" font-family="Montserrat-Regular, Montserrat"><tspan x="0" y="0">Fuel</tspan></text><text transform="translate(930 976)" fill="#fff" font-size="20" font-family="Montserrat-Regular, Montserrat"><tspan x="0" y="0">Water</tspan></text><text transform="translate(1073 976)" fill="#fff" font-size="20" font-family="Montserrat-Regular, Montserrat"><tspan x="0" y="0">Oxygen</tspan></text><text transform="translate(707 661)" fill="#fff" font-size="20" font-family="Montserrat-Regular, Montserrat"><tspan x="0" y="0">Liters in Millions</tspan></text><text transform="translate(735 959)" fill="#fff" font-size="20" font-family="Montserrat-Regular, Montserrat"><tspan x="0" y="0">0</tspan></text><text transform="translate(738 925)" fill="#fff" font-size="20" font-family="Montserrat-Regular, Montserrat"><tspan x="0" y="0">1</tspan></text><text transform="translate(736 891)" fill="#fff" font-size="20" font-family="Montserrat-Regular, Montserrat"><tspan x="0" y="0">2</tspan></text><text transform="translate(736 857)" fill="#fff" font-size="20" font-family="Montserrat-Regular, Montserrat"><tspan x="0" y="0">3</tspan></text><text transform="translate(735 823)" fill="#fff" font-size="20" font-family="Montserrat-Regular, Montserrat"><tspan x="0" y="0">4</tspan></text><text transform="translate(736 789)" fill="#fff" font-size="20" font-family="Montserrat-Regular, Montserrat"><tspan x="0" y="0">5</tspan></text><text transform="translate(735 755)" fill="#fff" font-size="20" font-family="Montserrat-Regular, Montserrat"><tspan x="0" y="0">6</tspan></text><text transform="translate(736 721)" fill="#fff" font-size="20" font-family="Montserrat-Regular, Montserrat"><tspan x="0" y="0">7</tspan></text><text transform="translate(735 687)" fill="#fff" font-size="20" font-family="Montserrat-Regular, Montserrat"><tspan x="0" y="0">8</tspan></text><text transform="translate(815.5 940) rotate(-90)" fill="#655555" font-size="20" font-family="Montserrat-Regular, Montserrat"><tspan x="0" y="0">6.8M</tspan></text><text transform="translate(967 940) rotate(-90)" fill="#488cff" font-size="20" font-family="Montserrat-Regular, Montserrat"><tspan x="0" y="0">7.1M</tspan></text><text transform="translate(1119 940) rotate(-90)" fill="#08a8b4" font-size="20" font-family="Montserrat-Regular, Montserrat"><tspan x="0" y="0">7.9M</tspan></text></g></svg>